<svg xmlns="http://www.w3.org/2000/svg" width="185.719" height="186.688" viewBox="0 0 185.719 186.688">
  <defs>
    <style>
      .cls-1 {
        fill: #fff;
        fill-rule: evenodd;
      }
    </style>
  </defs>
  <path id="Shape" class="cls-1" d="M842.2,440.791c-25.563-19.26-56.074.446-64.471,27.509-5.09,16.407,2.543,33.836,16.483,43.022a23.128,23.128,0,0,0,2.957,1.437c0.855,0.587,1.657,1.226,2.567,1.759,16.252,9.432,34.88,3.89,48.5-7.383C870.538,488.69,863.167,456.585,842.2,440.791Zm-8.5,12.314c11.985,8.2,17.517,25.018,9.476,37.654-10.34,16.267-26.782,16.77-39.765,9.054-10.195-6.8-14.6-17.339-10.808-29.452C798.321,452.1,817.4,441.938,833.708,453.105Zm84.58-24.078a35.6,35.6,0,0,0,9.388-8.614c19.251-25.38-1.054-66.937-33.649-63.438-15.273,1.643-25.682,12.432-31.813,25.8-6.337,13.829-.163,29.01,9.728,39.282,9.51,9.88,24.889,16.281,38.388,11.323A33.64,33.64,0,0,0,918.288,429.027ZM895.221,373.7c18.477-3.064,26,18.271,22.023,32.732a20.574,20.574,0,0,1-11.6,13.441c-7.654,2.138-16.454-2.963-21.828-7.973C869.775,398.786,876.013,376.9,895.221,373.7ZM937.876,464.6c-27.153-11.812-55.481,10.972-52.982,40.01a39.918,39.918,0,0,0,13.078,26.527c0.229,0.243.463,0.506,0.7,0.731,0.644,0.573,1.255,1.172,1.945,1.713,0.206,0.167.427,0.4,0.637,0.557,12.573,9.519,27.377,12.654,41.806,5.166C971.855,524.357,965.552,476.644,937.876,464.6Zm-7.337,11.1c22.538,6.07,26.115,40.53,7.206,52.632-6.459,4.136-13.862,3.712-20.638,1.278-8.552-4.562-15.627-11.85-18.082-21.38C894.017,488.8,911.082,470.466,930.539,475.7Z" transform="translate(-776.156 -356.781)"/>
</svg>
