<svg xmlns="http://www.w3.org/2000/svg" width="425.719" height="76.625" viewBox="0 0 425.719 76.625">
  <defs>
    <style>
      .cls-1 {
        fill: #f2b90c;
        fill-rule: evenodd;
      }
    </style>
  </defs>
  <path id="Shape" class="cls-1" d="M286.164,176.137h19.913V145.31h5.345a26.294,26.294,0,0,0,10.571-1.8,10.361,10.361,0,0,0,5.558-5.154q1.514-3.355,1.513-10.685v-6.667a52.3,52.3,0,0,0-.78-10.615,12.659,12.659,0,0,0-2.98-5.839,13.98,13.98,0,0,0-6.574-3.688,47.115,47.115,0,0,0-12.511-1.277H286.164v76.549Zm25.021-62.27q1.23,1.182,1.23,5.107v6.288q0,4.255-1.064,5.6t-3.808,1.348q-0.615,0-1.466-.048v-19.48Q309.954,112.685,311.185,113.867Zm23.6-14.279v76.549H354.7V99.588H334.788Zm26.3,0v15.32h13.527l-15.324,50.118v11.111h36.7V160.818h-14.83l14.83-45.91V99.588H361.086Zm38.454,0v15.32h13.528l-15.325,50.118v11.111h36.7V160.818h-14.83l14.83-45.91V99.588H399.54Zm36.657,0v15.32h11.777v61.229h19.913V114.908h11.825V99.588H436.2Zm49.818,0-10.158,76.549h20.587l1.2-13.759h7.122l1.069,13.759h20.351L514.8,99.588H486.015Zm11.373,49.22q0.779-10.164,3.822-32.151,1.521,19.146,3.033,32.151h-6.855Zm-236.74-5.332H103.17a2.72,2.72,0,0,0-2.715,2.728,29.977,29.977,0,0,0,29.866,30.017H233.5A29.977,29.977,0,0,0,263.363,146.2,2.718,2.718,0,0,0,260.648,143.476ZM233.5,170.763H130.321a24.517,24.517,0,0,1-24.287-21.83H257.781A24.514,24.514,0,0,1,233.5,170.763Zm-51.584-68.219h-0.035A43.071,43.071,0,0,0,152.944,113.7l3.63,4.055a37.685,37.685,0,0,1,25.3-9.75h0.03c15.048,0,27.912,7.9,32.775,20.113l5.045-2.024C214.034,111.786,199.188,102.544,181.912,102.544Zm20.752,18.43a32.513,32.513,0,0,0-45.87,4.394l4.187,3.473a27.088,27.088,0,0,1,38.221-3.662,27.448,27.448,0,0,1,4.922,5.348l4.448-3.135A33.008,33.008,0,0,0,202.664,120.974Zm-5.553,9.638a21.672,21.672,0,0,0-30.719.311l3.88,3.821a16.258,16.258,0,0,1,23.038-.238,16.5,16.5,0,0,1,4.89,11.7h5.43A21.994,21.994,0,0,0,197.111,130.612ZM211.9,113.459h-2.834v5.458h2.725a30.208,30.208,0,0,1,29.867,27.514l5.409-.453A35.553,35.553,0,0,0,211.9,113.459Zm16.071,17.178a24.357,24.357,0,0,0-34.5,1.932l4.046,3.64a18.942,18.942,0,0,1,26.839-1.506,19.144,19.144,0,0,1,6.185,11.845l5.39-.687A24.616,24.616,0,0,0,227.966,130.637Zm-12.946,5.056a13.585,13.585,0,0,0-16.519,9.835l5.262,1.353a8.136,8.136,0,0,1,15.781,0l5.262-1.353A13.611,13.611,0,0,0,215.02,135.693Zm-60.205-22.174a35.353,35.353,0,0,0-38.059,32.462l5.412,0.447a29.825,29.825,0,0,1,44.8-23.486l2.735-4.718A35.391,35.391,0,0,0,154.815,113.519Zm0.217,10.981a24.5,24.5,0,0,0-27.241,21.371l5.39,0.666a18.993,18.993,0,0,1,37.724,0l5.4-.666A24.462,24.462,0,0,0,155.032,124.5Zm0.442,11.261a13.565,13.565,0,0,0-16.568,9.75l5.254,1.381a8.137,8.137,0,0,1,15.764,0l5.251-1.383A13.619,13.619,0,0,0,155.474,135.761Zm26.435-.472A10.9,10.9,0,0,0,171.048,146.2h5.431a5.431,5.431,0,1,1,10.861,0h5.43A10.9,10.9,0,0,0,181.909,135.289Z" transform="translate(-100.469 -99.594)"/>
</svg>
